<?xml version="1.0" encoding="UTF-8"?>
<svg id="Layer_1" data-name="Layer 1" xmlns="http://www.w3.org/2000/svg" viewBox="0 0 504.39 151.82">
  <defs>
    <style>
      .cls-1 {
        fill: #06f;
        stroke-width: 0px;
      }
    </style>
  </defs>
  <g>
    <path class="cls-1" d="m23.48,17.47H0V3.5h61.5v13.98h-23.48v64.29h-14.53V17.47Z"/>
    <path class="cls-1" d="m110.58,64.99c-1.23,4.47-8.27,17.89-26.28,17.89-16.77,0-29.07-12.3-29.07-29.63s12.3-29.63,29.07-29.63c15.66,0,27.95,12.3,27.95,28.51,0,1.68-.22,3.02-.34,4.03l-.22,1.57h-42.49c1.23,7.94,7.16,13.42,15.09,13.42,6.6,0,10.62-3.8,11.74-6.15h14.54Zm-12.3-16.77c-1.23-7.27-6.04-12.86-13.98-12.86-8.5,0-13.42,5.59-15.09,12.86h29.07Z"/>
    <path class="cls-1" d="m120.64,3.5h13.98v78.27h-13.98V3.5Z"/>
    <path class="cls-1" d="m198.34,64.99c-1.23,4.47-8.27,17.89-26.28,17.89-16.77,0-29.07-12.3-29.07-29.63s12.3-29.63,29.07-29.63c15.65,0,27.95,12.3,27.95,28.51,0,1.68-.22,3.02-.34,4.03l-.22,1.57h-42.49c1.23,7.94,7.16,13.42,15.09,13.42,6.6,0,10.62-3.8,11.74-6.15h14.54Zm-12.3-16.77c-1.23-7.27-6.04-12.86-13.98-12.86-8.5,0-13.42,5.59-15.09,12.86h29.07Z"/>
    <path class="cls-1" d="m212.87,38.16h-9.5v-13.42h9.5v-8.39c0-8.5,5.48-13.98,13.98-13.98h12.3v12.3h-8.39c-2.24,0-3.91,1.68-3.91,3.91v6.15h12.3v13.42h-12.3v43.61h-13.98v-43.61Z"/>
    <path class="cls-1" d="m299.38,53.25c0,17.33-12.3,29.63-29.07,29.63s-29.07-12.3-29.07-29.63,12.3-29.63,29.07-29.63,29.07,12.3,29.07,29.63Zm-13.98,0c0-10.06-6.71-16.77-15.09-16.77s-15.09,6.71-15.09,16.77,6.71,16.77,15.09,16.77,15.09-6.71,15.09-16.77Z"/>
    <path class="cls-1" d="m307.76,24.74h12.86l1.12,5.59h.56c1.01-1.23,2.35-2.35,3.8-3.35,2.57-1.68,6.49-3.36,11.85-3.36,12.86,0,22.36,9.51,22.36,24.04v34.1h-13.98v-32.99c0-7.27-5.03-12.3-12.3-12.3s-12.3,5.03-12.3,12.3v32.99h-13.98V24.74Z"/>
    <path class="cls-1" d="m449.27,60.52c-1.79,8.95-8.83,22.36-26.84,22.36-16.77,0-29.07-12.3-29.07-29.63s12.3-29.63,29.07-29.63c18,0,25.05,13.42,26.84,21.8h-13.98c-1.23-3.24-4.47-8.95-12.86-8.95s-15.09,6.71-15.09,16.77,6.71,16.77,15.09,16.77,11.63-5.59,12.86-9.5h13.98Z"/>
    <path class="cls-1" d="m491.53,76.17h-.56c-1.01,1.23-2.35,2.35-3.91,3.35-2.68,1.68-6.6,3.35-12.3,3.35-12.97,0-20.68-7.94-20.68-17.33,0-11.18,7.83-19.01,23.48-19.01h12.86v-1.12c0-6.26-3.8-10.62-10.06-10.62s-9.5,4.03-10.06,7.27h-13.98c1.23-9.39,8.83-18.45,24.04-18.45s24.04,9.62,24.04,21.8v36.34h-11.74l-1.12-5.59Zm-1.12-19.01h-11.74c-7.27,0-10.62,2.8-10.62,7.27s3.24,7.27,8.95,7.27c8.5,0,13.42-4.92,13.42-12.86v-1.68Z"/>
    <path class="cls-1" d="m371.01,24.74h13.98v57.03h-13.98V24.74Z"/>
    <circle class="cls-1" cx="378" cy="8.27" r="8.27"/>
    <polygon class="cls-1" points="275.34 .7 289.88 .7 276.46 16.91 264.72 16.91 275.34 .7"/>
  </g>
  <g>
    <circle class="cls-1" cx="24.35" cy="134.33" r="17.49"/>
    <circle class="cls-1" cx="65.45" cy="134.33" r="17.49"/>
    <circle class="cls-1" cx="106.55" cy="134.33" r="17.49"/>
  </g>
</svg>